NotoSerif-BoldItalic.ufo
<glyph name="hyphen" format="2">
  <advance width="310"/>
  <unicode hex="002D"/>
  <outline>
    <contour>
      <point x="7" y="209" type="line"/>
      <point x="267" y="209" type="line"/>
      <point x="295" y="336" type="line"/>
      <point x="35" y="336" type="line"/>
    </contour>
  </outline>
</glyph>
<glyph name="acute" format="2">
  <advance width="371"/>
  <unicode hex="00B4"/>
  <outline>
    <contour>
      <point x="112" y="606" type="line"/>
      <point x="201" y="606" type="line"/>
      <point x="279" y="642"/>
      <point x="402" y="725"/>
      <point x="434" y="756" type="curve"/>
      <point x="437" y="766" type="line"/>
      <point x="243" y="766" type="line"/>
      <point x="211" y="724"/>
      <point x="153" y="656"/>
      <point x="115" y="619" type="curve"/>
    </contour>
  </outline>
</glyph>
<glyph name="tbar" format="2">
  <advance width="453"/>
  <unicode hex="0167"/>
  <anchor x="170" y="0" name="bottom"/>
  <anchor x="310" y="659" name="top"/>
  <anchor x="284" y="268" name="center"/>
  <anchor x="490" y="536" name="topright"/>
  <outline>
    <contour>
      <point x="21" y="274" type="line"/>
      <point x="89" y="274" type="line"/>
      <point x="285" y="274" type="line"/>
      <point x="391" y="274" type="line"/>
      <point x="403" y="331" type="line"/>
      <point x="297" y="331" type="line"/>
      <point x="102" y="331" type="line"/>
      <point x="33" y="331" type="line"/>
    </contour>
    <component base="t"/>
  </outline>
</glyph>
<glyph name="florin" format="2">
  <advance width="564"/>
  <unicode hex="0192"/>
  <anchor x="112" y="-12" name="bottom"/>
  <anchor x="538" y="770" name="top"/>
  <anchor x="741" y="770" name="topright"/>
  <outline>
    <contour>
      <point x="112" y="-12" type="curve" smooth="yes"/>
      <point x="265" y="-12"/>
      <point x="353" y="53"/>
      <point x="387" y="215" type="curve" smooth="yes"/>
      <point x="438" y="460" type="line"/>
      <point x="576" y="460" type="line"/>
      <point x="592" y="536" type="line"/>
      <point x="455" y="536" type="line"/>
      <point x="468" y="600" type="line" smooth="yes"/>
      <point x="481" y="668"/>
      <point x="498" y="701"/>
      <point x="532" y="701" type="curve" smooth="yes"/>
      <point x="566" y="701"/>
      <point x="577" y="651"/>
      <point x="577" y="600" type="curve"/>
      <point x="668" y="600"/>
      <point x="716" y="629"/>
      <point x="716" y="673" type="curve" smooth="yes"/>
      <point x="716" y="726"/>
      <point x="654" y="770"/>
      <point x="538" y="770" type="curve" smooth="yes"/>
      <point x="385" y="770"/>
      <point x="304" y="705"/>
      <point x="270" y="571" type="curve" smooth="yes"/>
      <point x="261" y="536" type="line"/>
      <point x="165" y="515" type="line"/>
      <point x="152" y="460" type="line"/>
      <point x="243" y="460" type="line"/>
      <point x="186" y="186" type="line" smooth="yes"/>
      <point x="166" y="90"/>
      <point x="152" y="57"/>
      <point x="118" y="57" type="curve" smooth="yes"/>
      <point x="84" y="57"/>
      <point x="73" y="107"/>
      <point x="73" y="158" type="curve"/>
      <point x="-11" y="158"/>
      <point x="-49" y="129"/>
      <point x="-49" y="85" type="curve" smooth="yes"/>
      <point x="-49" y="32"/>
      <point x="3" y="-12"/>
    </contour>
  </outline>
</glyph>
<glyph name="uni01B5" format="2">
  <advance width="711"/>
  <unicode hex="01B5"/>
  <anchor x="299" y="0" name="bottom"/>
  <anchor x="451" y="714" name="top"/>
  <anchor x="786" y="714" name="topright"/>
  <outline>
    <contour>
      <point x="130" y="336" type="line"/>
      <point x="248" y="336" type="line"/>
      <point x="482" y="336" type="line"/>
      <point x="641" y="336" type="line"/>
      <point x="656" y="408" type="line"/>
      <point x="542" y="408" type="line"/>
      <point x="308" y="408" type="line"/>
      <point x="145" y="408" type="line"/>
    </contour>
    <component base="Z"/>
  </outline>
</glyph>
<glyph name="uni01B6" format="2">
  <advance width="593"/>
  <unicode hex="01B6"/>
  <anchor x="240" y="0" name="bottom"/>
  <anchor x="354" y="536" name="top"/>
  <anchor x="630" y="536" name="topright"/>
  <outline>
    <contour>
      <point x="54" y="252" type="line"/>
      <point x="173" y="252" type="line"/>
      <point x="380" y="252" type="line"/>
      <point x="532" y="252" type="line"/>
      <point x="547" y="319" type="line"/>
      <point x="433" y="319" type="line"/>
      <point x="227" y="319" type="line"/>
      <point x="69" y="319" type="line"/>
    </contour>
    <component base="z"/>
  </outline>
</glyph>
<glyph name="uni01C1" format="2">
  <advance width="606"/>
  <unicode hex="01C1"/>
  <anchor x="248" y="0" name="bottom"/>
  <anchor x="408" y="760" name="top"/>
  <outline>
    <contour>
      <point x="307" y="0" type="line"/>
      <point x="414" y="0" type="line"/>
      <point x="574" y="760" type="line"/>
      <point x="467" y="760" type="line"/>
    </contour>
    <contour>
      <point x="81" y="0" type="line"/>
      <point x="189" y="0" type="line"/>
      <point x="349" y="760" type="line"/>
      <point x="241" y="760" type="line"/>
    </contour>
  </outline>
</glyph>
<glyph name="uni01E4" format="2">
  <advance width="856"/>
  <unicode hex="01E4"/>
  <anchor x="371" y="0" name="bottom"/>
  <anchor x="523" y="714" name="top"/>
  <anchor x="924" y="714" name="topright"/>
  <outline>
    <contour>
      <point x="363" y="146" type="line"/>
      <point x="783" y="146" type="line"/>
      <point x="797" y="215" type="line"/>
      <point x="376" y="215" type="line"/>
    </contour>
    <component base="G"/>
  </outline>
</glyph>
<glyph name="uni023C" format="2">
  <advance width="558"/>
  <unicode hex="023C"/>
  <anchor x="223" y="-138" name="bottom"/>
  <anchor x="414" y="714" name="top"/>
  <anchor x="595" y="536" name="topright"/>
  <outline>
    <contour>
      <point x="65" y="-138" type="line"/>
      <point x="143" y="-138" type="line"/>
      <point x="542" y="714" type="line"/>
      <point x="464" y="714" type="line"/>
    </contour>
    <component base="c"/>
  </outline>
</glyph>
<glyph name="uni023D" format="2">
  <advance width="677"/>
  <unicode hex="023D"/>
  <anchor x="282" y="0" name="bottom"/>
  <anchor x="434" y="714" name="top"/>
  <anchor x="377" y="357" name="center"/>
  <anchor x="752" y="714" name="topright"/>
  <outline>
    <contour>
      <point x="49" y="337" type="line"/>
      <point x="136" y="337" type="line"/>
      <point x="336" y="337" type="line"/>
      <point x="497" y="337" type="line"/>
      <point x="512" y="407" type="line"/>
      <point x="351" y="407" type="line"/>
      <point x="151" y="407" type="line"/>
      <point x="63" y="407" type="line"/>
    </contour>
    <component base="L"/>
  </outline>
</glyph>
<glyph name="uni0243" format="2">
  <advance width="700"/>
  <unicode hex="0243"/>
  <anchor x="293" y="0" name="bottom"/>
  <anchor x="445" y="714" name="top"/>
  <anchor x="775" y="714" name="topright"/>
  <outline>
    <contour>
      <point x="2" y="168" type="line"/>
      <point x="398" y="168" type="line"/>
      <point x="411" y="234" type="line"/>
      <point x="15" y="234" type="line"/>
    </contour>
    <component base="B"/>
  </outline>
</glyph>
<glyph name="uni0246" format="2">
  <advance width="640"/>
  <unicode hex="0246"/>
  <anchor x="274" y="0" name="bottom"/>
  <anchor x="426" y="714" name="top"/>
  <anchor x="736" y="714" name="topright"/>
  <outline>
    <contour>
      <point x="185" y="-96" type="line"/>
      <point x="270" y="-96" type="line"/>
      <point x="652" y="760" type="line"/>
      <point x="567" y="760" type="line"/>
    </contour>
    <component base="E"/>
  </outline>
</glyph>
<glyph name="uni0247" format="2">
  <advance width="566"/>
  <unicode hex="0247"/>
  <anchor x="197" y="-138" name="bottom"/>
  <anchor x="378" y="714" name="top"/>
  <anchor x="613" y="536" name="topright"/>
  <outline>
    <contour>
      <point x="66" y="-138" type="line"/>
      <point x="134" y="-138" type="line"/>
      <point x="503" y="714" type="line"/>
      <point x="437" y="714" type="line"/>
    </contour>
    <component base="e"/>
  </outline>
</glyph>
<glyph name="uni0248" format="2">
  <advance width="433"/>
  <unicode hex="0248"/>
  <anchor x="109" y="-240" name="bottom"/>
  <anchor x="312" y="714" name="top"/>
  <anchor x="508" y="714" name="topright"/>
  <outline>
    <contour>
      <point x="28" y="337" type="line"/>
      <point x="456" y="337" type="line"/>
      <point x="471" y="407" type="line"/>
      <point x="42" y="407" type="line"/>
    </contour>
    <component base="J"/>
  </outline>
</glyph>
<glyph name="uni0249" format="2">
  <advance width="373"/>
  <unicode hex="0249"/>
  <anchor x="79" y="-240" name="bottom"/>
  <anchor x="295" y="777" name="top"/>
  <anchor x="461" y="777" name="topright"/>
  <outline>
    <contour>
      <point x="-13" y="241" type="line"/>
      <point x="370" y="241" type="line"/>
      <point x="381" y="305" type="line"/>
      <point x="-1" y="305" type="line"/>
    </contour>
    <component base="j"/>
  </outline>
</glyph>
<glyph name="uni025F" format="2">
  <advance width="373"/>
  <unicode hex="025F"/>
  <anchor x="79" y="-240" name="bottom"/>
  <anchor x="244" y="536" name="top"/>
  <anchor x="408" y="536" name="topright"/>
  <outline>
    <contour>
      <point x="-15" y="246" type="line"/>
      <point x="384" y="246" type="line"/>
      <point x="399" y="313" type="line"/>
      <point x="1" y="313" type="line"/>
    </contour>
    <component base="jdotless"/>
  </outline>
</glyph>
<glyph name="uni0268" format="2">
  <advance width="391"/>
  <unicode hex="0268"/>
  <anchor x="139" y="0" name="bottom"/>
  <anchor x="304" y="777" name="top"/>
  <anchor x="479" y="777" name="topright"/>
  <outline>
    <contour>
      <point x="-8" y="257" type="line"/>
      <point x="388" y="257" type="line"/>
      <point x="404" y="324" type="line"/>
      <point x="7" y="324" type="line"/>
    </contour>
    <component base="i"/>
  </outline>
</glyph>
<glyph name="uni026B" format="2">
  <advance width="461"/>
  <unicode hex="026B"/>
  <anchor x="174" y="0" name="bottom"/>
  <anchor x="336" y="760" name="top"/>
  <anchor x="286" y="268" name="center"/>
  <anchor x="509" y="760" name="topright"/>
  <outline>
    <contour>
      <point x="349" y="293" type="curve" smooth="yes"/>
      <point x="438" y="293"/>
      <point x="459" y="371"/>
      <point x="479" y="463" type="curve"/>
      <point x="393" y="463" type="line"/>
      <point x="386" y="436"/>
      <point x="379" y="410"/>
      <point x="338" y="410" type="curve" smooth="yes"/>
      <point x="280" y="410"/>
      <point x="178" y="473"/>
      <point x="108" y="473" type="curve" smooth="yes"/>
      <point x="17" y="473"/>
      <point x="-27" y="381"/>
      <point x="-33" y="303" type="curve"/>
      <point x="53" y="303" type="line"/>
      <point x="56" y="330"/>
      <point x="78" y="356"/>
      <point x="106" y="356" type="curve" smooth="yes"/>
      <point x="164" y="356"/>
      <point x="274" y="293"/>
    </contour>
    <component base="l" xOffset="33"/>
  </outline>
</glyph>
<glyph name="uni0289" format="2">
  <advance width="728"/>
  <unicode hex="0289"/>
  <anchor x="307" y="0" name="bottom"/>
  <anchor x="421" y="536" name="top"/>
  <anchor x="765" y="536" name="topright"/>
  <outline>
    <contour>
      <point x="-8" y="281" type="line"/>
      <point x="730" y="281" type="line"/>
      <point x="745" y="348" type="line"/>
      <point x="7" y="348" type="line"/>
    </contour>
    <component base="u"/>
  </outline>
</glyph>
<glyph name="uni02A2" format="2">
  <advance width="617"/>
  <unicode hex="02A2"/>
  <anchor x="252" y="0" name="bottom"/>
  <anchor x="414" y="763" name="top"/>
  <outline>
    <contour>
      <point x="81" y="154" type="line"/>
      <point x="501" y="154" type="line"/>
      <point x="516" y="221" type="line"/>
      <point x="96" y="221" type="line"/>
    </contour>
    <component base="uni0295"/>
  </outline>
</glyph>
<glyph name="uptackbelowcomb" format="2">
  <unicode hex="031D"/>
  <anchor x="-47" y="0" name="_bottom"/>
  <anchor x="-72" y="-204" name="bottom"/>
  <outline>
    <contour>
      <point x="-176" y="-204" type="line"/>
      <point x="16" y="-204" type="line"/>
      <point x="28" y="-151" type="line"/>
      <point x="-41" y="-151" type="line"/>
      <point x="-20" y="-52" type="line"/>
      <point x="-72" y="-52" type="line"/>
      <point x="-93" y="-151" type="line"/>
      <point x="-163" y="-151" type="line"/>
    </contour>
  </outline>
</glyph>
<glyph name="strokelongoverlaycomb" format="2">
  <unicode hex="0336"/>
  <anchor x="-8" y="292" name="_center"/>
  <outline>
    <contour>
      <point x="-351" y="252" type="line"/>
      <point x="320" y="252" type="line"/>
      <point x="336" y="332" type="line"/>
      <point x="-335" y="332" type="line"/>
    </contour>
  </outline>
</glyph>
<glyph name="uni0374" format="2">
  <advance width="268"/>
  <unicode hex="0374"/>
  <outline>
    <contour>
      <point x="61" y="493" type="line"/>
      <point x="152" y="493" type="line"/>
      <point x="216" y="556"/>
      <point x="288" y="659"/>
      <point x="321" y="702" type="curve"/>
      <point x="323" y="714" type="line"/>
      <point x="164" y="714" type="line"/>
      <point x="155" y="683"/>
      <point x="109" y="576"/>
      <point x="63" y="511" type="curve"/>
    </contour>
  </outline>
</glyph>
<glyph name="uni0375" format="2">
  <advance width="268"/>
  <unicode hex="0375"/>
  <outline>
    <contour>
      <point x="-145" y="-240" type="line"/>
      <point x="15" y="-240" type="line"/>
      <point x="23" y="-209"/>
      <point x="69" y="-102"/>
      <point x="116" y="-37" type="curve"/>
      <point x="119" y="-19" type="line"/>
      <point x="27" y="-19" type="line"/>
      <point x="-37" y="-82"/>
      <point x="-110" y="-185"/>
      <point x="-143" y="-228" type="curve"/>
    </contour>
  </outline>
</glyph>
<glyph name="uni03FC" format="2">
  <advance width="624"/>
  <unicode hex="03FC"/>
  <anchor x="204" y="-240" name="bottom"/>
  <anchor x="369" y="536" name="top"/>
  <outline>
    <contour>
      <point x="-119" y="-141" type="line"/>
      <point x="324" y="-141" type="line"/>
      <point x="340" y="-75" type="line"/>
      <point x="-103" y="-75" type="line"/>
    </contour>
    <component base="rho"/>
  </outline>
</glyph>
<glyph name="uni048E" format="2">
  <advance width="695"/>
  <unicode hex="048E"/>
  <anchor x="291" y="0" name="bottom"/>
  <anchor x="443" y="714" name="top"/>
  <anchor x="770" y="714" name="topright"/>
  <outline>
    <contour>
      <point x="391" y="157" type="line"/>
      <point x="449" y="161" type="line"/>
      <point x="436" y="437" type="line"/>
      <point x="377" y="433" type="line"/>
    </contour>
    <component base="P"/>
  </outline>
</glyph>
<glyph name="uni048F" format="2">
  <advance width="657"/>
  <unicode hex="048F"/>
  <anchor x="81" y="-240" name="bottom"/>
  <anchor x="386" y="536" name="top"/>
  <anchor x="694" y="536" name="topright"/>
  <outline>
    <contour>
      <point x="393" y="-73" type="line"/>
      <point x="440" y="-39" type="line"/>
      <point x="308" y="149" type="line"/>
      <point x="261" y="116" type="line"/>
    </contour>
    <component base="p"/>
  </outline>
</glyph>
<glyph name="uni04B1" format="2">
  <advance width="613"/>
  <unicode hex="04B1"/>
  <anchor x="199" y="-240" name="bottom"/>
  <anchor x="364" y="536" name="top"/>
  <outline>
    <contour>
      <point x="9" y="-57" type="line"/>
      <point x="454" y="-57" type="line"/>
      <point x="465" y="0" type="line"/>
      <point x="21" y="0" type="line"/>
    </contour>
    <component base="uni04AF"/>
  </outline>
</glyph>
<glyph name="uni04B9" format="2">
  <advance width="685"/>
  <unicode hex="04B9"/>
  <anchor x="286" y="0" name="bottom"/>
  <anchor x="400" y="536" name="top"/>
  <outline>
    <contour>
      <point x="263" y="124" type="line"/>
      <point x="315" y="124" type="line"/>
      <point x="365" y="363" type="line"/>
      <point x="313" y="363" type="line"/>
    </contour>
    <component base="afii10089"/>
  </outline>
</glyph>
<glyph name="uni04BE" format="2">
  <advance width="838"/>
  <unicode hex="04BE"/>
  <anchor x="317" y="-210" name="bottom"/>
  <anchor x="514" y="714" name="top"/>
  <outline>
    <contour>
      <point x="417" y="-210" type="curve"/>
      <point x="498" y="-210" type="line"/>
      <point x="529" y="-63"/>
      <point x="548" y="-34"/>
      <point x="679" y="25" type="curve"/>
      <point x="337" y="24" type="line"/>
      <point x="421" y="-13"/>
      <point x="433" y="-58"/>
      <point x="433" y="-97" type="curve" smooth="yes"/>
      <point x="433" y="-133"/>
      <point x="424" y="-177"/>
    </contour>
    <component base="uni04BC"/>
  </outline>
</glyph>
<glyph name="uni04E8" format="2">
  <advance width="829"/>
  <unicode hex="04E8"/>
  <anchor x="358" y="0" name="bottom"/>
  <anchor x="510" y="714" name="top"/>
  <anchor x="453" y="357" name="center"/>
  <anchor x="904" y="714" name="topright"/>
  <outline>
    <contour>
      <point x="168" y="342" type="line"/>
      <point x="717" y="342" type="line"/>
      <point x="717" y="407" type="line"/>
      <point x="168" y="407" type="line"/>
    </contour>
    <component base="O"/>
  </outline>
</glyph>
<glyph name="uni04FE" format="2">
  <advance width="785"/>
  <unicode hex="04FE"/>
  <anchor x="336" y="0" name="bottom"/>
  <anchor x="488" y="714" name="top"/>
  <anchor x="860" y="714" name="topright"/>
  <outline>
    <contour>
      <point x="171" y="345" type="line"/>
      <point x="675" y="345" type="line"/>
      <point x="689" y="401" type="line"/>
      <point x="184" y="401" type="line"/>
    </contour>
    <component base="X"/>
  </outline>
</glyph>
<glyph name="uni04FF" format="2">
  <advance width="647"/>
  <unicode hex="04FF"/>
  <anchor x="267" y="0" name="bottom"/>
  <anchor x="381" y="536" name="top"/>
  <anchor x="684" y="536" name="topright"/>
  <outline>
    <contour>
      <point x="82" y="268" type="line"/>
      <point x="552" y="268" type="line"/>
      <point x="564" y="326" type="line"/>
      <point x="94" y="326" type="line"/>
    </contour>
    <component base="x"/>
  </outline>
</glyph>
<glyph name="uni051E" format="2">
  <advance width="797"/>
  <unicode hex="051E"/>
  <anchor x="342" y="0" name="bottom"/>
  <anchor x="494" y="714" name="top"/>
  <outline>
    <contour>
      <point x="657" y="406" type="line"/>
      <point x="689" y="454" type="line"/>
      <point x="457" y="610" type="line"/>
      <point x="425" y="563" type="line"/>
    </contour>
    <component base="afii10028"/>
  </outline>
</glyph>
<glyph name="uni051F" format="2">
  <advance width="643"/>
  <unicode hex="051F"/>
  <anchor x="265" y="0" name="bottom"/>
  <anchor x="379" y="536" name="top"/>
  <outline>
    <contour>
      <point x="486" y="291" type="line"/>
      <point x="529" y="330" type="line"/>
      <point x="375" y="496" type="line"/>
      <point x="332" y="458" type="line"/>
    </contour>
    <component base="afii10076"/>
  </outline>
</glyph>
<glyph name="uni1AB9" format="2">
  <unicode hex="1AB9"/>
  <anchor x="-422" y="0" name="_bottom"/>
  <anchor x="-440" y="-240" name="bottom"/>
  <outline>
    <contour>
      <point x="-450" y="-240" type="line"/>
      <point x="-350" y="26" type="line"/>
      <point x="-433" y="52" type="line"/>
      <point x="-533" y="-213" type="line"/>
    </contour>
  </outline>
</glyph>
<glyph name="uni1ABA" format="2">
  <unicode hex="1ABA"/>
  <anchor x="-429" y="0" name="_bottom"/>
  <anchor x="-452" y="-287" name="bottom"/>
  <outline>
    <contour>
      <point x="-452" y="-240" type="line"/>
      <point x="-352" y="26" type="line"/>
      <point x="-434" y="52" type="line"/>
      <point x="-534" y="-213" type="line"/>
    </contour>
    <contour>
      <point x="-485" y="-287" type="curve" smooth="yes"/>
      <point x="-443" y="-287"/>
      <point x="-414" y="-260"/>
      <point x="-414" y="-216" type="curve" smooth="yes"/>
      <point x="-414" y="-172"/>
      <point x="-443" y="-145"/>
      <point x="-485" y="-145" type="curve" smooth="yes"/>
      <point x="-527" y="-145"/>
      <point x="-556" y="-172"/>
      <point x="-556" y="-216" type="curve" smooth="yes"/>
      <point x="-556" y="-260"/>
      <point x="-527" y="-287"/>
    </contour>
  </outline>
</glyph>
<glyph name="uni1D09" format="2">
  <advance width="426"/>
  <unicode hex="1D09"/>
  <anchor x="111" y="-214" name="bottom"/>
  <anchor x="270" y="536" name="top"/>
  <outline>
    <contour>
      <point x="-1" y="0" type="line"/>
      <point x="326" y="0" type="line"/>
      <point x="335" y="61" type="line"/>
      <point x="313" y="61" type="line" smooth="yes"/>
      <point x="290" y="61"/>
      <point x="274" y="71"/>
      <point x="274" y="92" type="curve" smooth="yes"/>
      <point x="274" y="96"/>
      <point x="276" y="108"/>
      <point x="281" y="128" type="curve" smooth="yes"/>
      <point x="355" y="445" type="line" smooth="yes"/>
      <point x="361" y="470"/>
      <point x="389" y="475"/>
      <point x="415" y="475" type="curve" smooth="yes"/>
      <point x="438" y="475" type="line"/>
      <point x="450" y="536" type="line"/>
      <point x="122" y="536" type="line"/>
      <point x="110" y="475" type="line"/>
      <point x="137" y="475" type="line" smooth="yes"/>
      <point x="154" y="475"/>
      <point x="174" y="475"/>
      <point x="174" y="452" type="curve" smooth="yes"/>
      <point x="174" y="442"/>
      <point x="169" y="423"/>
      <point x="163" y="402" type="curve" smooth="yes"/>
      <point x="89" y="90" type="line" smooth="yes"/>
      <point x="82" y="64"/>
      <point x="60" y="61"/>
      <point x="34" y="61" type="curve" smooth="yes"/>
      <point x="13" y="61" type="line"/>
    </contour>
    <contour>
      <point x="134" y="-214" type="curve" smooth="yes"/>
      <point x="193" y="-214"/>
      <point x="252" y="-182"/>
      <point x="252" y="-127" type="curve" smooth="yes"/>
      <point x="252" y="-78"/>
      <point x="205" y="-60"/>
      <point x="156" y="-60" type="curve" smooth="yes"/>
      <point x="97" y="-60"/>
      <point x="40" y="-81"/>
      <point x="40" y="-147" type="curve" smooth="yes"/>
      <point x="40" y="-193"/>
      <point x="82" y="-214"/>
    </contour>
  </outline>
</glyph>
<glyph name="uni1D24" format="2">
  <advance width="558"/>
  <unicode hex="1D24"/>
  <anchor x="249" y="0" name="bottom"/>
  <anchor x="378" y="760" name="top"/>
  <outline>
    <contour>
      <point x="239" y="-11" type="curve" smooth="yes"/>
      <point x="388" y="-11"/>
      <point x="491" y="42"/>
      <point x="491" y="118" type="curve" smooth="yes"/>
      <point x="491" y="178"/>
      <point x="438" y="207"/>
      <point x="330" y="207" type="curve"/>
      <point x="323" y="113"/>
      <point x="295" y="58"/>
      <point x="255" y="58" type="curve" smooth="yes"/>
      <point x="223" y="58"/>
      <point x="201" y="98"/>
      <point x="201" y="157" type="curve" smooth="yes"/>
      <point x="201" y="235"/>
      <point x="242" y="279"/>
      <point x="367" y="320" type="curve"/>
      <point x="385" y="399" type="line"/>
      <point x="541" y="449"/>
      <point x="613" y="517"/>
      <point x="613" y="603" type="curve" smooth="yes"/>
      <point x="613" y="712"/>
      <point x="532" y="769"/>
      <point x="377" y="769" type="curve" smooth="yes"/>
      <point x="228" y="769"/>
      <point x="125" y="716"/>
      <point x="125" y="640" type="curve" smooth="yes"/>
      <point x="125" y="580"/>
      <point x="178" y="551"/>
      <point x="286" y="551" type="curve"/>
      <point x="293" y="645"/>
      <point x="321" y="700"/>
      <point x="361" y="700" type="curve" smooth="yes"/>
      <point x="393" y="700"/>
      <point x="415" y="660"/>
      <point x="415" y="601" type="curve" smooth="yes"/>
      <point x="415" y="523"/>
      <point x="374" y="479"/>
      <point x="249" y="438" type="curve"/>
      <point x="232" y="359" type="line"/>
      <point x="75" y="309"/>
      <point x="3" y="241"/>
      <point x="3" y="155" type="curve" smooth="yes"/>
      <point x="3" y="46"/>
      <point x="84" y="-11"/>
    </contour>
  </outline>
</glyph>
<glyph name="uni1D7A" format="2">
  <advance width="1178"/>
  <unicode hex="1D7A"/>
  <anchor x="170" y="0" name="bottom_1"/>
  <anchor x="772" y="0" name="bottom_2"/>
  <anchor x="224" y="268" name="center_1"/>
  <anchor x="886" y="268" name="center_2"/>
  <anchor x="310" y="659" name="top_1"/>
  <anchor x="934" y="760" name="top_2"/>
  <anchor x="410" y="1020" name="topright_1"/>
  <anchor x="1263" y="760" name="topright_2"/>
  <outline>
    <contour>
      <point x="-29" y="-169" type="line"/>
      <point x="65" y="-169" type="line"/>
      <point x="1018" y="760" type="line"/>
      <point x="927" y="760" type="line"/>
    </contour>
    <component base="t"/>
    <component base="h" xOffset="480"/>
  </outline>
</glyph>
<glyph name="uni1D7D" format="2">
  <advance width="657"/>
  <unicode hex="1D7D"/>
  <anchor x="81" y="-240" name="bottom"/>
  <anchor x="386" y="536" name="top"/>
  <anchor x="694" y="536" name="topright"/>
  <outline>
    <contour>
      <point x="-21" y="257" type="line"/>
      <point x="704" y="257" type="line"/>
      <point x="719" y="324" type="line"/>
      <point x="-6" y="324" type="line"/>
    </contour>
    <component base="p"/>
  </outline>
</glyph>
<glyph name="uni1D7F" format="2">
  <advance width="650"/>
  <unicode hex="1D7F"/>
  <anchor x="275" y="0" name="bottom"/>
  <anchor x="381" y="536" name="top"/>
  <outline>
    <contour>
      <point x="-15" y="265" type="line"/>
      <point x="660" y="265" type="line"/>
      <point x="675" y="332" type="line"/>
      <point x="1" y="332" type="line"/>
    </contour>
    <component base="uni028A"/>
  </outline>
</glyph>
<glyph name="uni1D82" format="2">
  <advance width="480"/>
  <unicode hex="1D82"/>
  <anchor x="-75" y="-240" name="bottom"/>
  <anchor x="441" y="770" name="top"/>
  <anchor x="644" y="770" name="topright"/>
  <outline>
    <contour>
      <point x="301" y="-197" type="curve" smooth="yes"/>
      <point x="375" y="-197"/>
      <point x="429" y="-165"/>
      <point x="452" y="-38" type="curve" smooth="yes"/>
      <point x="484" y="143" type="line"/>
      <point x="249" y="143" type="line"/>
      <point x="236" y="79" type="line"/>
      <point x="401" y="79" type="line"/>
      <point x="378" y="-32" type="line" smooth="yes"/>
      <point x="367" y="-81"/>
      <point x="346" y="-107"/>
      <point x="305" y="-107" type="curve" smooth="yes"/>
      <point x="282" y="-107"/>
      <point x="267" y="-98"/>
      <point x="252" y="-86" type="curve"/>
      <point x="234" y="-94"/>
      <point x="220" y="-114"/>
      <point x="220" y="-137" type="curve" smooth="yes"/>
      <point x="220" y="-180"/>
      <point x="257" y="-197"/>
    </contour>
    <component base="f"/>
  </outline>
</glyph>
<glyph name="uni1FCD" format="2">
  <advance width="511"/>
  <unicode hex="1FCD"/>
  <anchor x="328" y="536" name="_top"/>
  <anchor x="351" y="724" name="top"/>
  <outline>
    <contour>
      <point x="189" y="545" type="line"/>
      <point x="295" y="557"/>
      <point x="340" y="618"/>
      <point x="340" y="663" type="curve" smooth="yes"/>
      <point x="340" y="707"/>
      <point x="310" y="724"/>
      <point x="269" y="724" type="curve" smooth="yes"/>
      <point x="214" y="724"/>
      <point x="201" y="693"/>
      <point x="201" y="676" type="curve" smooth="yes"/>
      <point x="201" y="635"/>
      <point x="255" y="657"/>
      <point x="255" y="628" type="curve" smooth="yes"/>
      <point x="255" y="618"/>
      <point x="239" y="594"/>
      <point x="187" y="583" type="curve"/>
    </contour>
    <contour>
      <point x="450" y="555" type="curve"/>
      <point x="507" y="555" type="line"/>
      <point x="510" y="568" type="line"/>
      <point x="494" y="623"/>
      <point x="481" y="678"/>
      <point x="473" y="714" type="curve"/>
      <point x="366" y="714" type="line"/>
      <point x="366" y="704" type="line"/>
      <point x="385" y="663"/>
      <point x="424" y="594"/>
    </contour>
  </outline>
</glyph>
<glyph name="uni1FCE" format="2">
  <advance width="511"/>
  <unicode hex="1FCE"/>
  <anchor x="319" y="536" name="_top"/>
  <anchor x="342" y="724" name="top"/>
  <outline>
    <contour>
      <point x="169" y="545" type="line"/>
      <point x="275" y="557"/>
      <point x="320" y="618"/>
      <point x="320" y="663" type="curve" smooth="yes"/>
      <point x="320" y="707"/>
      <point x="290" y="724"/>
      <point x="249" y="724" type="curve" smooth="yes"/>
      <point x="194" y="724"/>
      <point x="181" y="693"/>
      <point x="181" y="676" type="curve" smooth="yes"/>
      <point x="181" y="635"/>
      <point x="235" y="657"/>
      <point x="235" y="628" type="curve" smooth="yes"/>
      <point x="235" y="618"/>
      <point x="219" y="594"/>
      <point x="167" y="583" type="curve"/>
    </contour>
    <contour>
      <point x="348" y="555" type="line"/>
      <point x="414" y="555" type="line"/>
      <point x="442" y="596"/>
      <point x="482" y="657"/>
      <point x="512" y="705" type="curve"/>
      <point x="509" y="714" type="line"/>
      <point x="386" y="714" type="line"/>
      <point x="378" y="673"/>
      <point x="350" y="613"/>
      <point x="341" y="566" type="curve"/>
    </contour>
  </outline>
</glyph>
<glyph name="uni1FEF" format="2">
  <advance width="815"/>
  <unicode hex="1FEF"/>
  <anchor x="441" y="536" name="_top"/>
  <anchor x="485" y="823" name="top"/>
  <outline>
    <contour>
      <point x="501" y="641" type="curve"/>
      <point x="584" y="641" type="line"/>
      <point x="587" y="657" type="line"/>
      <point x="563" y="716"/>
      <point x="546" y="781"/>
      <point x="537" y="823" type="curve"/>
      <point x="381" y="823" type="line"/>
      <point x="378" y="809" type="line"/>
      <point x="409" y="752"/>
      <point x="442" y="702"/>
    </contour>
  </outline>
</glyph>
<glyph name="uni1FFD" format="2">
  <advance width="815"/>
  <unicode hex="1FFD"/>
  <anchor x="425" y="536" name="_top"/>
  <anchor x="469" y="823" name="top"/>
  <outline>
    <contour>
      <point x="343" y="641" type="line"/>
      <point x="440" y="641" type="line"/>
      <point x="479" y="678"/>
      <point x="547" y="748"/>
      <point x="586" y="811" type="curve"/>
      <point x="590" y="823" type="line"/>
      <point x="420" y="823" type="line"/>
      <point x="395" y="759"/>
      <point x="372" y="707"/>
      <point x="347" y="656" type="curve"/>
    </contour>
  </outline>
</glyph>
<glyph name="endash" format="2">
  <advance width="500"/>
  <unicode hex="2013"/>
  <outline>
    <contour>
      <point x="-12" y="229" type="line"/>
      <point x="498" y="229" type="line"/>
      <point x="514" y="308" type="line"/>
      <point x="3" y="308" type="line"/>
    </contour>
  </outline>
</glyph>
<glyph name="parenleftsuperior" format="2">
  <advance width="250"/>
  <unicode hex="207D"/>
  <outline>
    <contour>
      <point x="189" y="197" type="curve"/>
      <point x="199" y="241" type="line"/>
      <point x="147" y="281"/>
      <point x="127" y="337"/>
      <point x="127" y="434" type="curve" smooth="yes"/>
      <point x="127" y="537"/>
      <point x="181" y="678"/>
      <point x="306" y="747" type="curve" smooth="yes"/>
      <point x="315" y="789" type="line"/>
      <point x="128" y="748"/>
      <point x="14" y="598"/>
      <point x="14" y="445" type="curve" smooth="yes"/>
      <point x="14" y="313"/>
      <point x="76" y="238"/>
    </contour>
  </outline>
</glyph>
<glyph name="parenrightsuperior" format="2">
  <advance width="250"/>
  <unicode hex="207E"/>
  <outline>
    <contour>
      <point x="-33" y="194" type="line"/>
      <point x="155" y="235"/>
      <point x="268" y="385"/>
      <point x="268" y="558" type="curve" smooth="yes"/>
      <point x="268" y="671"/>
      <point x="208" y="745"/>
      <point x="92" y="786" type="curve"/>
      <point x="83" y="742" type="line"/>
      <point x="134" y="702"/>
      <point x="152" y="650"/>
      <point x="152" y="572" type="curve" smooth="yes"/>
      <point x="152" y="451"/>
      <point x="103" y="305"/>
      <point x="-24" y="236" type="curve"/>
    </contour>
  </outline>
</glyph>
<glyph name="parenrightinferior" format="2">
  <advance width="250"/>
  <unicode hex="208E"/>
  <outline>
    <contour>
      <point x="-90" y="-289" type="line"/>
      <point x="97" y="-248"/>
      <point x="210" y="-98"/>
      <point x="210" y="75" type="curve" smooth="yes"/>
      <point x="210" y="191"/>
      <point x="150" y="262"/>
      <point x="35" y="303" type="curve"/>
      <point x="26" y="259" type="line"/>
      <point x="77" y="219"/>
      <point x="95" y="167"/>
      <point x="95" y="89" type="curve" smooth="yes"/>
      <point x="95" y="-32"/>
      <point x="46" y="-178"/>
      <point x="-81" y="-247" type="curve"/>
    </contour>
  </outline>
</glyph>
<glyph name="uni20A5" format="2">
  <advance width="1023"/>
  <unicode hex="20A5"/>
  <anchor x="455" y="0" name="bottom"/>
  <anchor x="569" y="536" name="top"/>
  <anchor x="1060" y="536" name="topright"/>
  <outline>
    <contour>
      <point x="134" y="-129" type="line"/>
      <point x="219" y="-129" type="line"/>
      <point x="811" y="666" type="line"/>
      <point x="726" y="666" type="line"/>
    </contour>
    <component base="m"/>
  </outline>
</glyph>
<glyph name="uni20B4" format="2">
  <advance width="663"/>
  <unicode hex="20B4"/>
  <anchor x="276" y="0" name="bottom"/>
  <anchor x="428" y="714" name="top"/>
  <outline>
    <contour>
      <point x="-3" y="271" type="line"/>
      <point x="664" y="271" type="line"/>
      <point x="677" y="339" type="line"/>
      <point x="10" y="339" type="line"/>
    </contour>
    <contour>
      <point x="21" y="392" type="line"/>
      <point x="688" y="392" type="line"/>
      <point x="701" y="460" type="line"/>
      <point x="34" y="460" type="line"/>
    </contour>
    <component base="uni01A7" xOffset="26"/>
  </outline>
</glyph>
<glyph name="planckconstantovertwopi" format="2">
  <advance width="698"/>
  <unicode hex="210F"/>
  <anchor x="292" y="0" name="bottom"/>
  <anchor x="406" y="268" name="center"/>
  <anchor x="454" y="760" name="top"/>
  <anchor x="783" y="760" name="topright"/>
  <outline>
    <contour>
      <point x="34" y="467" type="line"/>
      <point x="444" y="617" type="line"/>
      <point x="456" y="699" type="line"/>
      <point x="46" y="547" type="line"/>
    </contour>
    <component base="h"/>
  </outline>
</glyph>
<glyph name="response" format="2">
  <advance width="739"/>
  <unicode hex="211F"/>
  <anchor x="313" y="0" name="bottom"/>
  <anchor x="465" y="714" name="top"/>
  <anchor x="814" y="714" name="topright"/>
  <outline>
    <contour>
      <point x="89" y="-121" type="line"/>
      <point x="156" y="-121" type="line"/>
      <point x="564" y="797" type="line"/>
      <point x="341" y="874" type="line"/>
      <point x="320" y="819" type="line"/>
      <point x="486" y="761" type="line"/>
    </contour>
    <component base="R"/>
  </outline>
</glyph>
<glyph name="turnedSansSerifL" format="2">
  <advance width="656"/>
  <unicode hex="2142"/>
  <outline>
    <contour>
      <point x="203" y="0" type="line"/>
      <point x="588" y="0" type="line"/>
      <point x="601" y="61" type="line"/>
      <point x="588" y="61" type="line" smooth="yes"/>
      <point x="508" y="61"/>
      <point x="511" y="79"/>
      <point x="522" y="126" type="curve" smooth="yes"/>
      <point x="623" y="602" type="line" smooth="yes"/>
      <point x="633" y="646"/>
      <point x="672" y="653"/>
      <point x="711" y="653" type="curve" smooth="yes"/>
      <point x="724" y="653" type="line"/>
      <point x="737" y="714" type="line"/>
      <point x="114" y="714" type="line"/>
      <point x="57" y="485" type="line"/>
      <point x="130" y="485" type="line"/>
      <point x="142" y="522" type="line" smooth="yes"/>
      <point x="175" y="617"/>
      <point x="204" y="645"/>
      <point x="287" y="645" type="curve" smooth="yes"/>
      <point x="432" y="645" type="line"/>
      <point x="323" y="117" type="line" smooth="yes"/>
      <point x="313" y="68"/>
      <point x="272" y="61"/>
      <point x="229" y="61" type="curve" smooth="yes"/>
      <point x="216" y="61" type="line"/>
    </contour>
  </outline>
</glyph>
<glyph name="reversedSansSerifL" format="2">
  <advance width="654"/>
  <unicode hex="2143"/>
  <outline>
    <contour>
      <point x="-37" y="0" type="line"/>
      <point x="586" y="0" type="line"/>
      <point x="599" y="61" type="line"/>
      <point x="551" y="61" type="line" smooth="yes"/>
      <point x="514" y="61"/>
      <point x="512" y="83"/>
      <point x="520" y="121" type="curve" smooth="yes"/>
      <point x="620" y="593" type="line" smooth="yes"/>
      <point x="630" y="639"/>
      <point x="636" y="653"/>
      <point x="661" y="653" type="curve" smooth="yes"/>
      <point x="725" y="653" type="line"/>
      <point x="737" y="714" type="line"/>
      <point x="352" y="714" type="line"/>
      <point x="340" y="653" type="line"/>
      <point x="396" y="653" type="line" smooth="yes"/>
      <point x="429" y="653"/>
      <point x="425" y="627"/>
      <point x="419" y="597" type="curve" smooth="yes"/>
      <point x="308" y="69" type="line"/>
      <point x="130" y="69" type="line" smooth="yes"/>
      <point x="94" y="69"/>
      <point x="71" y="88"/>
      <point x="68" y="154" type="curve" smooth="yes"/>
      <point x="64" y="229" type="line"/>
      <point x="5" y="229" type="line"/>
    </contour>
  </outline>
</glyph>
<glyph name="uni2C66" format="2">
  <advance width="453"/>
  <unicode hex="2C66"/>
  <anchor x="126" y="-205" name="bottom"/>
  <anchor x="322" y="714" name="top"/>
  <anchor x="284" y="268" name="center"/>
  <anchor x="490" y="536" name="topright"/>
  <outline>
    <contour>
      <point x="104" y="-205" type="line"/>
      <point x="185" y="-205" type="line"/>
      <point x="547" y="714" type="line"/>
      <point x="466" y="714" type="line"/>
    </contour>
    <component base="t"/>
  </outline>
</glyph>
<glyph name="uni2DF5" format="2">
  <unicode hex="2DF5"/>
  <anchor x="57" y="536" name="_top"/>
  <anchor x="74" y="619" name="bottom"/>
  <anchor x="119" y="835" name="top"/>
  <outline>
    <contour>
      <point x="333" y="834" type="line"/>
      <point x="77" y="834" type="line" smooth="yes"/>
      <point x="-67" y="834"/>
      <point x="-121" y="758"/>
      <point x="-121" y="699" type="curve" smooth="yes"/>
      <point x="-121" y="643"/>
      <point x="-72" y="616"/>
      <point x="-11" y="616" type="curve" smooth="yes"/>
      <point x="55" y="616"/>
      <point x="84" y="640"/>
      <point x="84" y="663" type="curve" smooth="yes"/>
      <point x="84" y="674"/>
      <point x="80" y="682"/>
      <point x="75" y="686" type="curve"/>
      <point x="63" y="668"/>
      <point x="46" y="650"/>
      <point x="14" y="650" type="curve" smooth="yes"/>
      <point x="-19" y="650"/>
      <point x="-36" y="669"/>
      <point x="-36" y="700" type="curve" smooth="yes"/>
      <point x="-36" y="740"/>
      <point x="-7" y="805"/>
      <point x="65" y="805" type="curve" smooth="yes"/>
      <point x="159" y="805" type="line"/>
      <point x="131" y="671" type="line" smooth="yes"/>
      <point x="127" y="652"/>
      <point x="114" y="644"/>
      <point x="96" y="644" type="curve" smooth="yes"/>
      <point x="91" y="644" type="line"/>
      <point x="86" y="620" type="line"/>
      <point x="243" y="620" type="line"/>
      <point x="248" y="644" type="line"/>
      <point x="241" y="644" type="line" smooth="yes"/>
      <point x="223" y="644"/>
      <point x="215" y="652"/>
      <point x="219" y="671" type="curve" smooth="yes"/>
      <point x="247" y="805" type="line"/>
      <point x="257" y="805" type="line" smooth="yes"/>
      <point x="280" y="805"/>
      <point x="285" y="798"/>
      <point x="282" y="772" type="curve"/>
      <point x="282" y="755" type="line"/>
      <point x="319" y="755" type="line"/>
    </contour>
  </outline>
</glyph>
<glyph name="uniA642" format="2">
  <advance width="721"/>
  <unicode hex="A642"/>
  <outline>
    <contour>
      <point x="116" y="330" type="line"/>
      <point x="643" y="330" type="line"/>
      <point x="658" y="399" type="line"/>
      <point x="130" y="399" type="line"/>
    </contour>
    <component base="uniA640"/>
  </outline>
</glyph>
<glyph name="uniA740" format="2">
  <advance width="771"/>
  <unicode hex="A740"/>
  <anchor x="329" y="0" name="bottom"/>
  <anchor x="481" y="714" name="top"/>
  <anchor x="846" y="714" name="topright"/>
  <outline>
    <contour>
      <point x="93" y="526" type="line"/>
      <point x="478" y="526" type="line"/>
      <point x="491" y="589" type="line"/>
      <point x="107" y="589" type="line"/>
    </contour>
    <component base="K"/>
  </outline>
</glyph>
<glyph name="uniA748" format="2">
  <advance width="670"/>
  <unicode hex="A748"/>
  <anchor x="282" y="0" name="bottom"/>
  <anchor x="377" y="357" name="center"/>
  <anchor x="434" y="714" name="top"/>
  <anchor x="752" y="714" name="topright"/>
  <outline>
    <contour>
      <point x="89" y="526" type="line"/>
      <point x="474" y="526" type="line"/>
      <point x="489" y="589" type="line"/>
      <point x="105" y="589" type="line"/>
    </contour>
    <component base="L"/>
  </outline>
</glyph>
<glyph name="uniA749" format="2">
  <advance width="391"/>
  <unicode hex="A749"/>
  <anchor x="139" y="0" name="bottom"/>
  <anchor x="253" y="268" name="center"/>
  <anchor x="301" y="760" name="top"/>
  <anchor x="476" y="760" name="topright"/>
  <outline>
    <contour>
      <point x="57" y="586" type="line"/>
      <point x="419" y="586" type="line"/>
      <point x="433" y="643" type="line"/>
      <point x="71" y="643" type="line"/>
    </contour>
    <component base="l"/>
  </outline>
</glyph>
<glyph name="uniA74A" format="2">
  <advance width="829"/>
  <unicode hex="A74A"/>
  <anchor x="358" y="0" name="bottom"/>
  <anchor x="453" y="357" name="center"/>
  <anchor x="510" y="714" name="top"/>
  <anchor x="904" y="714" name="topright"/>
  <outline>
    <contour>
      <point x="11" y="338" type="line"/>
      <point x="857" y="338" type="line"/>
      <point x="873" y="407" type="line"/>
      <point x="24" y="407" type="line"/>
    </contour>
    <component base="O"/>
  </outline>
</glyph>
<glyph name="uniA750" format="2">
  <advance width="706"/>
  <unicode hex="A750"/>
  <anchor x="163" y="0" name="bottom"/>
  <anchor x="443" y="714" name="top"/>
  <anchor x="770" y="714" name="topright"/>
  <outline>
    <contour>
      <point x="4" y="145" type="line"/>
      <point x="409" y="145" type="line"/>
      <point x="424" y="208" type="line"/>
      <point x="20" y="208" type="line"/>
    </contour>
    <component base="P"/>
  </outline>
</glyph>
<glyph name="uniA751" format="2">
  <advance width="657"/>
  <unicode hex="A751"/>
  <anchor x="81" y="-240" name="bottom"/>
  <anchor x="386" y="536" name="top"/>
  <anchor x="694" y="536" name="topright"/>
  <outline>
    <contour>
      <point x="-95" y="-112" type="line"/>
      <point x="295" y="-112" type="line"/>
      <point x="310" y="-48" type="line"/>
      <point x="-79" y="-48" type="line"/>
    </contour>
    <component base="p"/>
  </outline>
</glyph>
<glyph name="uniA756" format="2">
  <advance width="820"/>
  <unicode hex="A756"/>
  <anchor x="302" y="-240" name="bottom"/>
  <anchor x="505" y="714" name="top"/>
  <anchor x="895" y="714" name="topright"/>
  <outline>
    <contour>
      <point x="241" y="-220" type="line"/>
      <point x="618" y="-78" type="line"/>
      <point x="603" y="-23" type="line"/>
      <point x="224" y="-165" type="line"/>
    </contour>
    <component base="Q"/>
  </outline>
</glyph>
<glyph name="uniA757" format="2">
  <advance width="683"/>
  <unicode hex="A757"/>
  <anchor x="234" y="-240" name="bottom"/>
  <anchor x="399" y="536" name="top"/>
  <anchor x="720" y="536" name="topright"/>
  <outline>
    <contour>
      <point x="212" y="-112" type="line"/>
      <point x="620" y="-112" type="line"/>
      <point x="635" y="-48" type="line"/>
      <point x="227" y="-48" type="line"/>
    </contour>
    <component base="q"/>
  </outline>
</glyph>
<glyph name="uniA765" format="2">
  <advance width="668"/>
  <unicode hex="A765"/>
  <anchor x="226" y="-240" name="bottom"/>
  <anchor x="439" y="760" name="top"/>
  <outline>
    <contour>
      <point x="68" y="569" type="line"/>
      <point x="423" y="569" type="line"/>
      <point x="439" y="633" type="line"/>
      <point x="83" y="633" type="line"/>
    </contour>
    <component base="thorn"/>
  </outline>
</glyph>
<glyph name="uniA791" format="2">
  <advance width="726"/>
  <unicode hex="A791"/>
  <anchor x="306" y="0" name="bottom"/>
  <anchor x="420" y="536" name="top"/>
  <anchor x="763" y="536" name="topright"/>
  <outline>
    <contour>
      <point x="524" y="-228" type="curve" smooth="yes"/>
      <point x="638" y="-228"/>
      <point x="673" y="-119"/>
      <point x="710" y="69" type="curve"/>
      <point x="682" y="106" type="line"/>
      <point x="618" y="4" type="line"/>
      <point x="575" y="-89"/>
      <point x="542" y="-127"/>
      <point x="484" y="-127" type="curve" smooth="yes"/>
      <point x="441" y="-127"/>
      <point x="412" y="-116"/>
      <point x="385" y="-108" type="curve"/>
      <point x="356" y="-173" type="line"/>
      <point x="412" y="-204"/>
      <point x="446" y="-228"/>
    </contour>
    <component base="n"/>
  </outline>
</glyph>
<glyph name="uniA793" format="2">
  <advance width="544"/>
  <unicode hex="A793"/>
  <anchor x="238" y="0" name="bottom"/>
  <anchor x="362" y="536" name="top"/>
  <anchor x="581" y="536" name="topright"/>
  <outline>
    <contour>
      <point x="-57" y="240" type="line"/>
      <point x="331" y="240" type="line"/>
      <point x="346" y="311" type="line"/>
      <point x="-42" y="311" type="line"/>
    </contour>
    <component base="c" xOffset="-14"/>
  </outline>
</glyph>
<glyph name="uniA799" format="2">
  <advance width="467"/>
  <unicode hex="A799"/>
  <anchor x="-75" y="-240" name="bottom"/>
  <anchor x="441" y="770" name="top"/>
  <anchor x="644" y="770" name="topright"/>
  <outline>
    <contour>
      <point x="16" y="223" type="line"/>
      <point x="420" y="223" type="line"/>
      <point x="439" y="303" type="line"/>
      <point x="35" y="303" type="line"/>
    </contour>
    <component base="f"/>
  </outline>
</glyph>
<glyph name="uniA7A0" format="2">
  <advance width="856"/>
  <unicode hex="A7A0"/>
  <anchor x="368" y="0" name="bottom"/>
  <anchor x="530" y="714" name="top"/>
  <anchor x="924" y="714" name="topright"/>
  <outline>
    <contour>
      <point x="-17" y="226" type="line"/>
      <point x="810" y="398" type="line"/>
      <point x="824" y="462" type="line"/>
      <point x="-3" y="290" type="line"/>
    </contour>
    <component base="G"/>
  </outline>
</glyph>
<glyph name="uniA7A1" format="2">
  <advance width="598"/>
  <unicode hex="A7A1"/>
  <anchor x="191" y="-240" name="bottom"/>
  <anchor x="356" y="536" name="top"/>
  <anchor x="635" y="536" name="topright"/>
  <outline>
    <contour>
      <point x="9" y="276" type="line"/>
      <point x="590" y="367" type="line"/>
      <point x="602" y="430" type="line"/>
      <point x="21" y="337" type="line"/>
    </contour>
    <component base="g"/>
  </outline>
</glyph>
<glyph name="uniA7A2" format="2">
  <advance width="771"/>
  <unicode hex="A7A2"/>
  <anchor x="329" y="0" name="bottom"/>
  <anchor x="481" y="714" name="top"/>
  <anchor x="846" y="714" name="topright"/>
  <outline>
    <contour>
      <point x="-9" y="123" type="line"/>
      <point x="747" y="257" type="line"/>
      <point x="760" y="321" type="line"/>
      <point x="5" y="187" type="line"/>
    </contour>
    <component base="K"/>
  </outline>
</glyph>
<glyph name="uniA7A4" format="2">
  <advance width="806"/>
  <unicode hex="A7A4"/>
  <anchor x="346" y="0" name="bottom"/>
  <anchor x="498" y="714" name="top"/>
  <anchor x="881" y="714" name="topright"/>
  <outline>
    <contour>
      <point x="-12" y="248" type="line"/>
      <point x="848" y="417" type="line"/>
      <point x="861" y="480" type="line"/>
      <point x="1" y="312" type="line"/>
    </contour>
    <component base="N"/>
  </outline>
</glyph>
<glyph name="uniA7A5" format="2">
  <advance width="726"/>
  <unicode hex="A7A5"/>
  <anchor x="306" y="0" name="bottom"/>
  <anchor x="420" y="536" name="top"/>
  <anchor x="763" y="536" name="topright"/>
  <outline>
    <contour>
      <point x="-14" y="122" type="line"/>
      <point x="737" y="256" type="line"/>
      <point x="750" y="326" type="line"/>
      <point x="0" y="192" type="line"/>
    </contour>
    <component base="n"/>
  </outline>
</glyph>
<glyph name="uniA7A6" format="2">
  <advance width="739"/>
  <unicode hex="A7A6"/>
  <anchor x="313" y="0" name="bottom"/>
  <anchor x="465" y="714" name="top"/>
  <anchor x="814" y="714" name="topright"/>
  <outline>
    <contour>
      <point x="42" y="389" type="line"/>
      <point x="814" y="534" type="line"/>
      <point x="828" y="598" type="line"/>
      <point x="55" y="453" type="line"/>
    </contour>
    <component base="R"/>
  </outline>
</glyph>
<glyph name="uniA7A7" format="2">
  <advance width="612"/>
  <unicode hex="A7A7"/>
  <anchor x="121" y="0" name="bottom"/>
  <anchor x="363" y="536" name="top"/>
  <anchor x="649" y="536" name="topright"/>
  <outline>
    <contour>
      <point x="-18" y="152" type="line"/>
      <point x="418" y="226" type="line"/>
      <point x="431" y="295" type="line"/>
      <point x="-5" y="221" type="line"/>
    </contour>
    <component base="r"/>
  </outline>
</glyph>
<glyph name="uniA7A8" format="2">
  <advance width="617"/>
  <unicode hex="A7A8"/>
  <anchor x="252" y="0" name="bottom"/>
  <anchor x="404" y="714" name="top"/>
  <anchor x="692" y="714" name="topright"/>
  <outline>
    <contour>
      <point x="18" y="298" type="line"/>
      <point x="600" y="420" type="line"/>
      <point x="613" y="484" type="line"/>
      <point x="31" y="362" type="line"/>
    </contour>
    <component base="S"/>
  </outline>
</glyph>
<glyph name="uniA7AE" format="2">
  <advance width="563"/>
  <unicode hex="A7AE"/>
  <guideline x="275" y="695" angle="78"/>
  <guideline x="107" y="649" angle="78"/>
  <outline>
    <contour>
      <point x="-29" y="0" type="line"/>
      <point x="480" y="0" type="line"/>
      <point x="524" y="179" type="line"/>
      <point x="440" y="179" type="line"/>
      <point x="430" y="146" type="line" smooth="yes"/>
      <point x="410" y="83"/>
      <point x="393" y="65"/>
      <point x="365" y="65" type="curve" smooth="yes"/>
      <point x="337" y="65" type="line"/>
      <point x="460" y="649" type="line"/>
      <point x="488" y="649" type="line" smooth="yes"/>
      <point x="510" y="649"/>
      <point x="522" y="639"/>
      <point x="522" y="606" type="curve" smooth="yes"/>
      <point x="522" y="597"/>
      <point x="521" y="564"/>
      <point x="515" y="535" type="curve"/>
      <point x="599" y="535" type="line"/>
      <point x="630" y="714" type="line"/>
      <point x="121" y="714" type="line"/>
      <point x="77" y="535" type="line"/>
      <point x="161" y="535" type="line"/>
      <point x="171" y="568" type="line" smooth="yes"/>
      <point x="190" y="631"/>
      <point x="207" y="649"/>
      <point x="236" y="649" type="curve" smooth="yes"/>
      <point x="265" y="649" type="line"/>
      <point x="142" y="65" type="line"/>
      <point x="112" y="65" type="line" smooth="yes"/>
      <point x="90" y="65"/>
      <point x="78" y="75"/>
      <point x="78" y="106" type="curve" smooth="yes"/>
      <point x="78" y="115"/>
      <point x="81" y="144"/>
      <point x="86" y="179" type="curve"/>
      <point x="4" y="179" type="line"/>
    </contour>
  </outline>
</glyph>
<glyph name="uniA7B8" format="2">
  <advance width="769"/>
  <unicode hex="A7B8"/>
  <anchor x="414" y="0" name="bottom"/>
  <anchor x="421" y="714" name="top"/>
  <anchor x="835" y="714" name="topright"/>
  <outline>
    <contour>
      <point x="40" y="-11" type="line"/>
      <point x="120" y="-11" type="line"/>
      <point x="860" y="732" type="line"/>
      <point x="781" y="732" type="line"/>
    </contour>
    <component base="U"/>
  </outline>
</glyph>
<glyph name="uniA7B9" format="2">
  <advance width="691"/>
  <unicode hex="A7B9"/>
  <anchor x="307" y="0" name="bottom"/>
  <anchor x="421" y="536" name="top"/>
  <anchor x="765" y="536" name="topright"/>
  <outline>
    <contour>
      <point x="-35" y="-21" type="line"/>
      <point x="45" y="-21" type="line"/>
      <point x="762" y="581" type="line"/>
      <point x="683" y="581" type="line"/>
    </contour>
    <component base="u"/>
  </outline>
</glyph>
<glyph name="uniA7C5" format="2">
  <advance width="605"/>
  <unicode hex="A7C5"/>
  <anchor x="252" y="0" name="bottom"/>
  <anchor x="404" y="714" name="top"/>
  <anchor x="692" y="714" name="topright"/>
  <outline>
    <contour>
      <point x="145" y="-256" type="curve" smooth="yes"/>
      <point x="236" y="-256"/>
      <point x="282" y="-226"/>
      <point x="282" y="-172" type="curve" smooth="yes"/>
      <point x="282" y="-133"/>
      <point x="257" y="-106"/>
      <point x="206" y="-106" type="curve" smooth="yes"/>
      <point x="119" y="-106"/>
      <point x="141" y="-186"/>
      <point x="83" y="-186" type="curve" smooth="yes"/>
      <point x="36" y="-186"/>
      <point x="8" y="-135"/>
      <point x="36" y="-22" type="curve" smooth="yes"/>
      <point x="76" y="141" type="line"/>
      <point x="21" y="158" type="line"/>
      <point x="-22" y="-27" type="line" smooth="yes"/>
      <point x="-57" y="-178"/>
      <point x="-3" y="-256"/>
    </contour>
    <component base="S"/>
  </outline>
</glyph>
<glyph name="uniA7C8" format="2">
  <advance width="728"/>
  <unicode hex="A7C8"/>
  <anchor x="307" y="0" name="bottom"/>
  <anchor x="421" y="268" name="center"/>
  <anchor x="469" y="760" name="top"/>
  <anchor x="773" y="760" name="topright"/>
  <outline>
    <contour>
      <point x="82" y="246" type="line"/>
      <point x="542" y="246" type="line"/>
      <point x="542" y="303" type="line"/>
      <point x="82" y="303" type="line"/>
    </contour>
    <component base="d"/>
  </outline>
</glyph>
<glyph name="uniA7C9" format="2">
  <advance width="617"/>
  <unicode hex="A7C9"/>
  <anchor x="252" y="0" name="bottom"/>
  <anchor x="404" y="714" name="top"/>
  <anchor x="692" y="714" name="topright"/>
  <outline>
    <contour>
      <point x="61" y="346" type="line"/>
      <point x="601" y="346" type="line"/>
      <point x="613" y="402" type="line"/>
      <point x="73" y="402" type="line"/>
    </contour>
    <component base="S"/>
  </outline>
</glyph>
<glyph name="uniA7CA" format="2">
  <advance width="551"/>
  <unicode hex="A7CA"/>
  <anchor x="219" y="0" name="bottom"/>
  <anchor x="333" y="536" name="top"/>
  <anchor x="588" y="536" name="topright"/>
  <outline>
    <contour>
      <point x="40" y="254" type="line"/>
      <point x="509" y="254" type="line"/>
      <point x="521" y="311" type="line"/>
      <point x="52" y="311" type="line"/>
    </contour>
    <component base="s"/>
  </outline>
</glyph>
<glyph name="uniA7FF" format="2">
  <advance width="1047"/>
  <unicode hex="A7FF"/>
  <outline>
    <contour>
      <point x="85" y="-28" type="curve" smooth="yes"/>
      <point x="126" y="-28"/>
      <point x="157" y="-12"/>
      <point x="164" y="36" type="curve"/>
      <point x="148" y="47"/>
      <point x="123" y="63"/>
      <point x="123" y="98" type="curve" smooth="yes"/>
      <point x="123" y="153"/>
      <point x="130" y="206"/>
      <point x="265" y="380" type="curve"/>
      <point x="275" y="380" type="line"/>
      <point x="264" y="-4" type="line"/>
      <point x="416" y="3" type="line"/>
      <point x="529" y="182"/>
      <point x="549" y="231"/>
      <point x="608" y="373" type="curve"/>
      <point x="612" y="320"/>
      <point x="613" y="181"/>
      <point x="613" y="-10" type="curve"/>
      <point x="751" y="1" type="line"/>
      <point x="874" y="106"/>
      <point x="1022" y="302"/>
      <point x="1022" y="454" type="curve" smooth="yes"/>
      <point x="1022" y="510"/>
      <point x="991" y="546"/>
      <point x="939" y="546" type="curve" smooth="yes"/>
      <point x="899" y="546"/>
      <point x="858" y="531"/>
      <point x="854" y="466" type="curve"/>
      <point x="878" y="462"/>
      <point x="909" y="437"/>
      <point x="909" y="392" type="curve" smooth="yes"/>
      <point x="909" y="342"/>
      <point x="901" y="288"/>
      <point x="789" y="137" type="curve"/>
      <point x="782" y="137" type="line"/>
      <point x="782" y="194"/>
      <point x="770" y="431"/>
      <point x="757" y="531" type="curve"/>
      <point x="607" y="527" type="line"/>
      <point x="556" y="381"/>
      <point x="506" y="266"/>
      <point x="447" y="158" type="curve"/>
      <point x="438" y="158" type="line"/>
      <point x="445" y="532" type="line"/>
      <point x="299" y="521" type="line"/>
      <point x="132" y="343"/>
      <point x="14" y="175"/>
      <point x="14" y="51" type="curve" smooth="yes"/>
      <point x="14" y="6"/>
      <point x="40" y="-28"/>
    </contour>
  </outline>
</glyph>
<glyph name="uniAB3F" format="2">
  <advance width="580"/>
  <unicode hex="AB3F"/>
  <anchor x="328" y="536" name="bottom"/>
  <anchor x="204" y="0" name="top"/>
  <anchor x="-15" y="0" name="topright"/>
  <outline>
    <contour>
      <point x="78" y="-66" type="line"/>
      <point x="149" y="-66" type="line"/>
      <point x="480" y="593" type="line"/>
      <point x="408" y="593" type="line"/>
    </contour>
    <component base="c" xScale="-1" yScale="-1" xOffset="580" yOffset="536"/>
  </outline>
</glyph>
<glyph name="uniAB41" format="2">
  <advance width="956"/>
  <unicode hex="AB41"/>
  <anchor x="551" y="536" name="bottom"/>
  <anchor x="437" y="0" name="top"/>
  <outline>
    <contour>
      <point x="361" y="-40" type="line"/>
      <point x="450" y="-40" type="line"/>
      <point x="917" y="576" type="line"/>
      <point x="830" y="576" type="line"/>
    </contour>
    <component base="oe" xScale="-1" yScale="-1" xOffset="959" yOffset="536"/>
  </outline>
</glyph>
<glyph name="uniAB42" format="2">
  <advance width="968"/>
  <unicode hex="AB42"/>
  <anchor x="560" y="536" name="bottom"/>
  <anchor x="446" y="0" name="top"/>
  <outline>
    <contour>
      <point x="465" y="250" type="line"/>
      <point x="820" y="250" type="line"/>
      <point x="820" y="316" type="line"/>
      <point x="465" y="316" type="line"/>
    </contour>
    <component base="oe" xScale="-1" yScale="-1" xOffset="968" yOffset="536"/>
  </outline>
</glyph>
<glyph name="uniAB4F" format="2">
  <advance width="731"/>
  <unicode hex="AB4F"/>
  <outline>
    <contour>
      <point x="12" y="252" type="line"/>
      <point x="682" y="252" type="line"/>
      <point x="694" y="311" type="line"/>
      <point x="24" y="311" type="line"/>
    </contour>
    <component base="uniAB4E"/>
  </outline>
</glyph>
<glyph name="uniFE20" format="2">
  <unicode hex="FE20"/>
  <anchor x="63" y="536" name="_top"/>
  <outline>
    <contour>
      <point x="-284" y="592" type="curve"/>
      <point x="-201" y="592" type="line"/>
      <point x="-119" y="698"/>
      <point x="-47" y="716"/>
      <point x="101" y="716" type="curve"/>
      <point x="101" y="814" type="line"/>
      <point x="-74" y="814"/>
      <point x="-226" y="749"/>
    </contour>
  </outline>
</glyph>
<glyph name="uniFE21" format="2">
  <unicode hex="FE21"/>
  <anchor x="42" y="536" name="_top"/>
  <outline>
    <contour>
      <point x="405" y="592" type="curve"/>
      <point x="487" y="592" type="line"/>
      <point x="420" y="735"/>
      <point x="273" y="814"/>
      <point x="117" y="814" type="curve" smooth="yes"/>
      <point x="101" y="814" type="line"/>
      <point x="101" y="716" type="line"/>
      <point x="111" y="716" type="line" smooth="yes"/>
      <point x="252" y="714"/>
      <point x="323" y="685"/>
    </contour>
  </outline>
</glyph>
<glyph name="uniFE22" format="2">
  <unicode hex="FE22"/>
  <anchor x="83" y="536" name="_top"/>
  <outline>
    <contour>
      <point x="-282" y="592" type="curve"/>
      <point x="-211" y="592" type="line"/>
      <point x="-182" y="647"/>
      <point x="-138" y="664"/>
      <point x="-87" y="664" type="curve" smooth="yes"/>
      <point x="-4" y="664"/>
      <point x="49" y="637"/>
      <point x="102" y="626" type="curve"/>
      <point x="102" y="721" type="line"/>
      <point x="42" y="734"/>
      <point x="-34" y="747"/>
      <point x="-96" y="747" type="curve" smooth="yes"/>
      <point x="-217" y="747"/>
      <point x="-260" y="669"/>
    </contour>
  </outline>
</glyph>
<glyph name="uniFE23" format="2">
  <unicode hex="FE23"/>
  <anchor x="61" y="536" name="_top"/>
  <outline>
    <contour>
      <point x="302" y="597" type="curve" smooth="yes"/>
      <point x="419" y="597"/>
      <point x="466" y="681"/>
      <point x="484" y="752" type="curve"/>
      <point x="413" y="752" type="line"/>
      <point x="384" y="699"/>
      <point x="343" y="680"/>
      <point x="289" y="680" type="curve" smooth="yes"/>
      <point x="228" y="680"/>
      <point x="163" y="702"/>
      <point x="100" y="721" type="curve"/>
      <point x="100" y="626" type="line"/>
      <point x="162" y="612"/>
      <point x="236" y="597"/>
    </contour>
  </outline>
</glyph>
<glyph name="combiningmacronrighthalf" format="2">
  <unicode hex="FE25"/>
  <anchor x="57" y="536" name="_top"/>
  <outline>
    <contour>
      <point x="-313" y="670" type="line"/>
      <point x="85" y="670" type="line"/>
      <point x="101" y="749" type="line"/>
      <point x="-296" y="749" type="line"/>
    </contour>
  </outline>
</glyph>
<glyph name="combiningconjoiningmacron" format="2">
  <unicode hex="FE26"/>
  <anchor x="57" y="536" name="_top"/>
  <outline>
    <contour>
      <point x="-302" y="670" type="line"/>
      <point x="472" y="670" type="line"/>
      <point x="489" y="749" type="line"/>
      <point x="-285" y="749" type="line"/>
    </contour>
  </outline>
</glyph>
<glyph name="uniFE27" format="2">
  <unicode hex="FE27"/>
  <anchor x="-57" y="0" name="_bottom"/>
  <outline>
    <contour>
      <point x="-103" y="-217" type="curve"/>
      <point x="-87" y="-137" type="line"/>
      <point x="-252" y="-137"/>
      <point x="-357" y="-103"/>
      <point x="-397" y="-26" type="curve"/>
      <point x="-468" y="-26" type="line"/>
      <point x="-418" y="-167"/>
      <point x="-298" y="-217"/>
    </contour>
  </outline>
</glyph>
<glyph name="uniFE28" format="2">
  <unicode hex="FE28"/>
  <anchor x="-57" y="0" name="_bottom"/>
  <outline>
    <contour>
      <point x="-102" y="-217" type="line"/>
      <point x="87" y="-217"/>
      <point x="232" y="-171"/>
      <point x="341" y="-26" type="curve"/>
      <point x="270" y="-26" type="line"/>
      <point x="200" y="-102"/>
      <point x="80" y="-137"/>
      <point x="-86" y="-137" type="curve"/>
    </contour>
  </outline>
</glyph>
<glyph name="uniFE29" format="2">
  <unicode hex="FE29"/>
  <anchor x="-57" y="0" name="_bottom"/>
  <outline>
    <contour>
      <point x="-509" y="-206" type="curve"/>
      <point x="-445" y="-206" type="line"/>
      <point x="-412" y="-165"/>
      <point x="-360" y="-137"/>
      <point x="-308" y="-137" type="curve" smooth="yes"/>
      <point x="-260" y="-137"/>
      <point x="-200" y="-150"/>
      <point x="-95" y="-177" type="curve"/>
      <point x="-78" y="-88" type="line"/>
      <point x="-151" y="-67"/>
      <point x="-222" y="-57"/>
      <point x="-288" y="-57" type="curve" smooth="yes"/>
      <point x="-386" y="-57"/>
      <point x="-466" y="-112"/>
    </contour>
  </outline>
</glyph>
<glyph name="uniFE2A" format="2">
  <unicode hex="FE2A"/>
  <anchor x="-57" y="0" name="_bottom"/>
  <outline>
    <contour>
      <point x="121" y="-207" type="curve" smooth="yes"/>
      <point x="211" y="-207"/>
      <point x="293" y="-151"/>
      <point x="340" y="-57" type="curve"/>
      <point x="276" y="-57" type="line"/>
      <point x="234" y="-100"/>
      <point x="195" y="-126"/>
      <point x="138" y="-126" type="curve" smooth="yes"/>
      <point x="89" y="-126"/>
      <point x="27" y="-113"/>
      <point x="-75" y="-87" type="curve"/>
      <point x="-92" y="-175" type="line"/>
      <point x="-20" y="-197"/>
      <point x="54" y="-207"/>
    </contour>
  </outline>
</glyph>
<glyph name="uniFE2D" format="2">
  <unicode hex="FE2D"/>
  <anchor x="-57" y="0" name="_bottom"/>
  <outline>
    <contour>
      <point x="-489" y="-211" type="line"/>
      <point x="285" y="-211" type="line"/>
      <point x="302" y="-132" type="line"/>
      <point x="-472" y="-132" type="line"/>
    </contour>
  </outline>
</glyph>
<glyph name="uniFE2E" format="2">
  <unicode hex="FE2E"/>
  <anchor x="-23" y="536" name="_top"/>
  <outline>
    <contour>
      <point x="-10" y="567" type="curve" smooth="yes"/>
      <point x="24" y="567"/>
      <point x="39" y="590"/>
      <point x="43" y="616" type="curve"/>
      <point x="215" y="616" type="line"/>
      <point x="215" y="686" type="line"/>
      <point x="-9" y="686" type="line" smooth="yes"/>
      <point x="-47" y="686"/>
      <point x="-64" y="656"/>
      <point x="-64" y="622" type="curve" smooth="yes"/>
      <point x="-64" y="585"/>
      <point x="-50" y="567"/>
    </contour>
  </outline>
</glyph>
<glyph name="aogonek.loclNAV" format="2">
  <advance width="728"/>
  <anchor x="256" y="-240" name="bottom"/>
  <anchor x="421" y="536" name="top"/>
  <anchor x="765" y="536" name="topright"/>
  <outline>
    <contour>
      <point x="279" y="-240" type="curve" smooth="yes"/>
      <point x="312" y="-240"/>
      <point x="345" y="-234"/>
      <point x="371" y="-224" type="curve"/>
      <point x="385" y="-153" type="line"/>
      <point x="360" y="-158"/>
      <point x="338" y="-161"/>
      <point x="320" y="-161" type="curve" smooth="yes"/>
      <point x="288" y="-161"/>
      <point x="263" y="-147"/>
      <point x="263" y="-104" type="curve" smooth="yes"/>
      <point x="263" y="-40"/>
      <point x="312" y="20"/>
      <point x="345" y="59" type="curve"/>
      <point x="284" y="59" type="line"/>
      <point x="204" y="4"/>
      <point x="143" y="-60"/>
      <point x="143" y="-138" type="curve" smooth="yes"/>
      <point x="143" y="-204"/>
      <point x="194" y="-240"/>
    </contour>
    <component base="a"/>
  </outline>
</glyph>
<glyph name="carondot" format="2">
  <advance width="577"/>
  <outline>
    <contour>
      <point x="376" y="751" type="curve" smooth="yes"/>
      <point x="407" y="751"/>
      <point x="440" y="770"/>
      <point x="440" y="826" type="curve" smooth="yes"/>
      <point x="440" y="865"/>
      <point x="416" y="885"/>
      <point x="381" y="885" type="curve" smooth="yes"/>
      <point x="341" y="885"/>
      <point x="317" y="855"/>
      <point x="317" y="810" type="curve" smooth="yes"/>
      <point x="317" y="770"/>
      <point x="340" y="751"/>
    </contour>
    <component base="caron" xOffset="42"/>
  </outline>
</glyph>
<glyph name="eth.sc" format="2">
  <advance width="692"/>
  <anchor x="296" y="0" name="bottom"/>
  <anchor x="418" y="571" name="top"/>
  <anchor x="346" y="286" name="center"/>
  <anchor x="733" y="571" name="topright"/>
  <outline>
    <contour>
      <point x="58" y="267" type="line"/>
      <point x="364" y="267" type="line"/>
      <point x="379" y="330" type="line"/>
      <point x="71" y="330" type="line"/>
    </contour>
    <component base="d.sc"/>
  </outline>
</glyph>
<glyph name="hbar.sc" format="2">
  <advance width="716"/>
  <anchor x="320" y="0" name="bottom"/>
  <anchor x="446" y="571" name="top"/>
  <anchor x="378" y="286" name="center"/>
  <anchor x="757" y="571" name="topright"/>
  <outline>
    <contour>
      <point x="43" y="396" type="line"/>
      <point x="773" y="396" type="line"/>
      <point x="785" y="447" type="line"/>
      <point x="55" y="447" type="line"/>
    </contour>
    <component base="h.sc"/>
  </outline>
</glyph>
<glyph name="lslash.sc" format="2">
  <advance width="595"/>
  <anchor x="240" y="0" name="bottom"/>
  <anchor x="362" y="571" name="top"/>
  <anchor x="298" y="286" name="center"/>
  <anchor x="636" y="571" name="topright"/>
  <outline>
    <contour>
      <point x="40" y="183" type="line"/>
      <point x="448" y="385" type="line"/>
      <point x="466" y="464" type="line"/>
      <point x="58" y="260" type="line"/>
    </contour>
    <component base="l.sc"/>
  </outline>
</glyph>
<glyph name="oslash.sc" format="2">
  <advance width="721"/>
  <anchor x="310" y="0" name="bottom"/>
  <anchor x="432" y="571" name="top"/>
  <anchor x="361" y="286" name="center"/>
  <anchor x="762" y="571" name="topright"/>
  <outline>
    <contour>
      <point x="88" y="-32" type="line"/>
      <point x="161" y="-32" type="line"/>
      <point x="680" y="604" type="line"/>
      <point x="607" y="604" type="line"/>
    </contour>
    <component base="o.sc"/>
  </outline>
</glyph>
<glyph name="tbar.sc" format="2">
  <advance width="603"/>
  <anchor x="251" y="0" name="bottom"/>
  <anchor x="383" y="571" name="top"/>
  <anchor x="322" y="286" name="center"/>
  <anchor x="674" y="571" name="topright"/>
  <outline>
    <contour>
      <point x="123" y="263" type="line"/>
      <point x="508" y="263" type="line"/>
      <point x="520" y="313" type="line"/>
      <point x="135" y="313" type="line"/>
    </contour>
    <component base="t.sc"/>
  </outline>
</glyph>
<glyph name="zero.slash" format="2">
  <advance width="569"/>
  <outline>
    <contour>
      <point x="165" y="162" type="line"/>
      <point x="506" y="505" type="line"/>
      <point x="467" y="564" type="line"/>
      <point x="127" y="222" type="line"/>
    </contour>
    <component base="zero" xOffset="-5"/>
  </outline>
</glyph>
